<svg viewBox="0 0 200 200" xml:space="preserve" xmlns="http://www.w3.org/2000/svg" enable-background="new 0 0 200 200"><linearGradient gradientUnits="userSpaceOnUse" id="a" x1="125.8" x2="152.316" y1="37.563" y2="37.563"><stop offset="0" stop-color="#ff0000" class="stop-color-f7931e"></stop><stop offset="1" stop-color="#8f1f1f" class="stop-color-af1259"></stop></linearGradient><circle cx="139.1" cy="37.6" r="13.3" fill="url(#a)" class="fillurl(-a)"></circle><linearGradient gradientUnits="userSpaceOnUse" id="b" x1="163.416" x2="173.899" y1="45.58" y2="45.58"><stop offset="0" stop-color="#ff0000" class="stop-color-f7931e"></stop><stop offset="1" stop-color="#8f1f1f" class="stop-color-af1259"></stop></linearGradient><circle cx="168.7" cy="45.6" r="5.2" fill="url(#b)" class="fillurl(-b)"></circle><linearGradient gradientUnits="userSpaceOnUse" id="c" x1="60.126" x2="77.392" y1="161.512" y2="161.512"><stop offset="0" stop-color="#ff0000" class="stop-color-f7931e"></stop><stop offset="1" stop-color="#8f1f1f" class="stop-color-af1259"></stop></linearGradient><circle cx="68.8" cy="161.5" r="8.6" fill="url(#c)" class="fillurl(-c)"></circle><linearGradient gradientUnits="userSpaceOnUse" id="d" x1="59.9" x2="150.253" y1="99.775" y2="99.775"><stop offset="0" stop-color="#ff0000" class="stop-color-f7931e"></stop><stop offset="1" stop-color="#8f1f1f" class="stop-color-af1259"></stop></linearGradient><path d="m91.9 114.2 24.9-14.4-24.9-14.4z" fill="url(#d)" class="fillurl(-d)"></path><linearGradient gradientUnits="userSpaceOnUse" id="e" x1="12.622" x2="187.378" y1="103.117" y2="103.117"><stop offset="0" stop-color="#ff0000" class="stop-color-f7931e"></stop><stop offset="1" stop-color="#8f1f1f" class="stop-color-af1259"></stop></linearGradient><path d="M148.2 61h-.9c-13.4-.2-26-5.7-35.8-14.8-10.5-9.7-24.5-15.7-40-15.7-32 0-58.4 26-58.9 58-.5 32.9 26.1 59.7 58.8 59.7h.1c6.1 0 11.7 3.4 14.4 9 5.4 11 16.8 18.6 29.9 18.6 12.3 0 22.7-6.2 28.5-16 5.3-9 12.6-16.7 21.7-21.8 12.4-6.9 21.4-20.9 21.4-36.2 0-21.9-17.4-40-39.2-40.8zm-4.8 62.3c-1.1 4.8-5 8.3-9.7 8.8-11.2 1.2-22.5 1.3-33.7 1.2-11.2 0-22.5 0-33.7-1.2-4.7-.5-8.6-4.1-9.7-8.8C55 116.5 55 109 55 102s0-14.5 1.6-21.3c1.1-4.8 5-8.3 9.7-8.8 11.2-1.2 22.5-1.3 33.7-1.2 11.2 0 22.5 0 33.7 1.2 4.7.5 8.6 4.1 9.7 8.8C145 87.5 145 95 145 102s0 14.5-1.6 21.3z" fill="url(#e)" class="fillurl(-e)"></path></svg>